<svg width="536" height="117" viewBox="0 0 536 117" fill="none" xmlns="http://www.w3.org/2000/svg">
<path d="M370.18 23.25H356.28V74.88H370.18V23.25ZM0 49.61H17.94V31.67H0V49.61ZM88.87 40.61C88.87 20.94 73.42 5 54.37 5C38.37 5 24.88 16.32 21.03 31.64H35C36.6197 27.8372 39.3167 24.5915 42.7586 22.3029C46.2004 20.0142 50.2367 18.7827 54.37 18.76C66.09 18.76 75.58 28.56 75.58 40.65C75.58 52.74 66.09 62.53 54.37 62.53C50.2322 62.504 46.1927 61.2665 42.7504 58.9704C39.308 56.6744 36.6136 53.4202 35 49.61H21C24.85 64.93 38.3 76.25 54.34 76.25C73.39 76.25 88.84 60.31 88.84 40.64L88.87 40.61ZM129.64 48.14C129.64 58.39 126.33 65.14 119.64 65.14C115.48 65.14 112.36 63.58 109.15 59.97V37.69C112.15 34.18 115.58 32.23 119.64 32.23C126.35 32.23 129.64 37.79 129.64 48.14ZM143.45 48.04C143.45 30.37 135.5 21.3 123.78 21.3C117.92 21.3 112.78 24.22 108.94 28.81L107.94 22.47H95.45V93.96H109.16V69.32C112.94 73.22 117.76 76.06 124.1 76.06C135.44 76.06 143.48 66.49 143.48 48.06L143.45 48.04ZM162 43.28C163.33 35.66 167.77 31.57 173.44 31.57C180.06 31.57 182.52 36.64 182.52 43.28H162ZM195.19 51.48C195.504 49.378 195.661 47.2554 195.66 45.13C195.66 31.13 187.66 21.22 173.07 21.22C158.98 21.22 147.63 31.57 147.63 48.35C147.63 65.92 158.22 76.17 173.16 76.17C180.676 76.1729 187.997 73.7805 194.06 69.34L188.29 60.26C184.128 63.0925 179.233 64.6558 174.2 64.76C166.54 64.76 162.48 60.37 161.72 51.49L195.19 51.48ZM233.67 74.9H247.57V40.23C247.57 28.42 242.75 21.23 231.4 21.23C225.06 21.23 219.67 24.55 215.99 28.55L215.33 22.5H202.28V74.88H216.08V38.09C219.08 34.18 222.79 31.94 227.08 31.94C231.81 31.94 233.7 35.16 233.7 39.84L233.67 74.9ZM22.82 116.02H247.57V103.95H22.82V116.02ZM295.87 54.09C295.87 60.09 291.81 63.09 285.38 63.09H270.73V45.41H285.38C291.72 45.41 295.87 48.33 295.87 54.09ZM293.32 26.57C293.32 31.64 289.92 35.06 283.21 35.06H270.73V18.37H283.21C289.92 18.37 293.32 21.78 293.32 26.57ZM297.76 39.45C303.91 36.72 307.69 32.03 307.69 24.91C307.69 14.27 300.32 6.56 284.34 6.56H256.55V74.88H285.66C300.6 74.88 310.15 67.95 310.15 55.36C310.15 46.97 305.05 41.89 297.76 39.45ZM349.48 35.16L351.48 22.08C349.487 21.3303 347.369 20.9638 345.24 21C339.48 21 334.66 23.54 330.78 30.57L329.83 22.47H317.05V74.88H330.85V43.36C333.97 37.3 337.47 33.98 342.67 33.98C344.994 33.9432 347.304 34.3435 349.48 35.16ZM370.79 7.57C370.79 6.57589 370.594 5.59152 370.214 4.67309C369.833 3.75465 369.276 2.92014 368.573 2.2172C367.87 1.51426 367.035 0.95666 366.117 0.576232C365.198 0.195804 364.214 0 363.22 0C362.226 0 361.242 0.195804 360.323 0.576232C359.405 0.95666 358.57 1.51426 357.867 2.2172C357.164 2.92014 356.607 3.75465 356.226 4.67309C355.846 5.59152 355.65 6.57589 355.65 7.57C355.65 8.56411 355.846 9.54848 356.226 10.4669C356.607 11.3853 357.164 12.2199 357.867 12.9228C358.57 13.6257 359.405 14.1833 360.323 14.5638C361.242 14.9442 362.226 15.14 363.22 15.14C364.214 15.14 365.198 14.9442 366.117 14.5638C367.035 14.1833 367.87 13.6257 368.573 12.9228C369.276 12.2199 369.833 11.3853 370.214 10.4669C370.594 9.54848 370.79 8.56411 370.79 7.57ZM411 59.95C407.88 63.56 404.67 65.12 400.51 65.12C393.8 65.12 390.58 58.39 390.58 48.12C390.58 37.85 393.8 32.21 400.51 32.21C404.57 32.21 407.98 34.21 411 37.67V59.95ZM412.61 74.88H424.9V1.19H411V28.32C409.21 26.186 406.985 24.458 404.474 23.251C401.964 22.044 399.225 21.3857 396.44 21.32C384.63 21.32 376.68 30.39 376.68 48.06C376.68 66.51 384.68 76.06 396.16 76.06C402.87 76.06 407.79 73.06 411.76 68.73L412.61 74.88ZM466.69 57.69C463.47 61.3 460.35 62.86 456.1 62.86C449.48 62.86 446.17 58.16 446.17 47.1C446.17 41.31 448.24 32.23 456.1 32.23C460.26 32.23 463.57 34.23 466.69 37.69V57.69ZM480.45 72.35V22.47H467.94L466.94 28.81C463.06 24.22 458.05 21.3 452.09 21.3C440.09 21.3 432.33 31 432.33 46.3C432.33 64.75 440.33 73.75 451.81 73.75C458.24 73.75 462.96 70.92 466.75 67.02V73.01C466.75 76.19 465.917 78.6533 464.25 80.4C462.583 82.1467 460.053 83.0233 456.66 83.03L437.41 83.64V93.96H456.9C460.183 93.9867 463.451 93.5284 466.6 92.6C469.436 91.7649 472.047 90.3021 474.24 88.32C476.245 86.335 477.809 83.9499 478.83 81.32C479.91 78.442 480.465 75.3939 480.47 72.32L480.45 72.35ZM522.28 43.26H501.76C503.09 35.64 507.53 31.55 513.2 31.55C519.82 31.55 522.28 36.62 522.28 43.26ZM535.42 45.11C535.42 31.11 527.42 21.2 512.83 21.2C498.74 21.2 487.39 31.55 487.39 48.33C487.39 65.9 497.98 76.15 512.92 76.15C520.433 76.1543 527.751 73.7616 533.81 69.32L528.05 60.24C523.902 63.0722 519.022 64.6421 514 64.76C506.34 64.76 502.28 60.37 501.52 51.49H535C535.314 49.388 535.471 47.2654 535.47 45.14" fill="black" fill-opacity="0.5"/>
</svg>
